<svg xmlns="http://www.w3.org/2000/svg" width="151.194" height="396.191" viewBox="0 0 151.194 396.191">
  <g id="logo_vertical" transform="translate(-60.29 -60.27)">
    <path id="パス_703" data-name="パス 703" d="M188.747,81.787a3.056,3.056,0,0,0-1.271-.125q-5.346-.008-10.688-.005-9.223,0-18.448,0a2.341,2.341,0,0,1-1.271-.172c.31-.228.539-.414.784-.578Q172.959,70.83,188.07,60.748a2.671,2.671,0,0,1,1.569-.478q9.223.02,18.452.013c.293,0,.587.03.94.047a5.974,5.974,0,0,1,.116.66c.018.375.009.75.009,1.124q0,27.738,0,55.466a58.2,58.2,0,0,1-.569,9.084c-2.129,13.4-8.494,24.12-20.056,31.5a43.092,43.092,0,0,1-15.647,6,48.957,48.957,0,0,1-9.843.828c-13.94-.293-25.274-5.917-34.013-16.759a51.244,51.244,0,0,1-8.416-15.294c-.134-.388-.276-.776-.419-1.159a1.636,1.636,0,0,0-.168-.255c-1.547.974-3.055,2.013-4.58,3.026s-3.06,2.029-4.59,3.046q-2.249,1.494-4.494,2.991-2.295,1.525-4.59,3.055L97.178,146.7q-2.295,1.52-4.59,3.047-2.25,1.5-4.495,2.991-2.293,1.526-4.585,3.055t-4.593,3.047q-2.295,1.525-4.586,3.055-2.249,1.492-4.494,2.986c-1.53,1.017-3.06,2.039-4.59,3.051s-3.029,2.034-4.507,2.987a.5.5,0,0,1-.289-.556c-.013-.3,0-.6,0-.9q0-11.145,0-22.28c0-.444.017-.892.026-1.34.344-.241.646-.461.956-.668q28.029-18.681,56.052-37.371a3.171,3.171,0,0,1,1.874-.573c5.775.018,11.55.009,17.324.013.371,0,.737.03,1.134.048a3.35,3.35,0,0,1,.112,1.254c0,3.6-.039,7.2.017,10.8a24.084,24.084,0,0,0,4.585,13.984A24.594,24.594,0,0,0,155.2,142.6a26,26,0,0,0,18.272-.492c7.769-3.163,12.557-8.984,14.613-17.082a24.846,24.846,0,0,0,.711-6.128q-.014-18-.009-36c0-.366-.026-.733-.043-1.107" fill="#27488d"/>
    <path id="パス_704" data-name="パス 704" d="M132.039,318.875c.715-.668,15.634-10.678,17.242-11.588,17.151,12.023,28.071,35.893,21.387,60.805a56.962,56.962,0,0,1-110.345-1.465,5.653,5.653,0,0,1,.465-.4q7.951-5.307,15.91-10.609c.181-.121.379-.224.647-.38.1.38.2.69.258,1.009A47.931,47.931,0,0,0,82.8,370.911,36.928,36.928,0,0,0,108,389.777a36.007,36.007,0,0,0,11.519.59,37.483,37.483,0,0,0,30.8-23.162,37.3,37.3,0,0,0-6.856-38.97,47.345,47.345,0,0,0-10.489-8.774c-.289-.172-.569-.357-.931-.586" fill="#27488d"/>
    <path id="パス_705" data-name="パス 705" d="M110.286,290.151v-55.44q7.867-5.223,15.691-10.416c.314.1.275.3.28.479.008.336,0,.672,0,1.013q0,21.033,0,42.076a3.715,3.715,0,0,0,.082,1.31,1.886,1.886,0,0,0,1.22-.233,37.542,37.542,0,0,0,24.666-27.687,36.321,36.321,0,0,0,.621-11.407A37.292,37.292,0,0,0,141.081,206.1a47.7,47.7,0,0,0-7.968-6.214c-.345-.215-.685-.44-1-.646a1.088,1.088,0,0,1,.013-.156.209.209,0,0,1,.06-.094q8.176-5.475,16.358-10.942c.246-.164.5-.31.746-.461a56.753,56.753,0,0,1,19.043,67.657,56.057,56.057,0,0,1-26.8,29.058,55.4,55.4,0,0,1-31.243,5.852" fill="#27488d"/>
    <path id="パス_706" data-name="パス 706" d="M146.278,454.532a3.533,3.533,0,0,1,.961-.724q8.6-5.747,17.207-11.48,6.361-4.24,12.717-8.489a3.011,3.011,0,0,1,1.771-.548q15.688.027,31.372.013c.332,0,.668.026.961.035a1.277,1.277,0,0,1,.2,1.012c.008,2.4,0,4.8,0,7.2v11.808c0,.4-.03.805-.043,1.2a1.511,1.511,0,0,1-.383.121q-32.275.007-64.546,0c-.056,0-.112-.069-.224-.142" fill="#27488d"/>
    <path id="パス_707" data-name="パス 707" d="M92.1,263.631a3,3,0,0,1-.345.353c-4.93,3.728-9.86,7.447-14.85,11.213-.285-.237-.548-.426-.78-.655a56.744,56.744,0,0,1-15.148-24.985c-.254-.858-.465-1.728-.689-2.551.707-.625,15.772-10.705,16.992-11.377a1.128,1.128,0,0,1,.305.771A47.847,47.847,0,0,0,80,245.157a49.337,49.337,0,0,0,11.4,17.724c.233.229.448.479.7.75" fill="#27488d"/>
    <path id="パス_708" data-name="パス 708" d="M60.563,456.461a3.522,3.522,0,0,1-.077-.479c-.005-7.908-.005-15.811-.005-23.775.276-.047.483-.1.694-.116.3-.021.6-.008.9-.008h33.4c.444,0,.888.012,1.483.021a2.193,2.193,0,0,1-.315.418c-.237.181-.491.345-.741.509q-17.117,11.415-34.238,22.822a3.046,3.046,0,0,1-1.1.608" fill="#27488d"/>
  </g>
</svg>
